# xmcd
#
# Track frame offsets: 
#        150
#        14649
#        30279
#        43747
#        57798
#        74826
#        91540
#        105989
#        123406
#        138805
#        155858
#        171848
#        190271
#
# Disc length: 2756 seconds
#
# Revision: 15
# Processed by: cddbd v1.5.2PL0 Copyright (c) Steve Scherf et al.
# Submitted via: ExactAudioCopyFreeDBPlugin 1.0
#
DISCID=aa0ac20d
DTITLE=Sick Puppies - Tri-Polar
DYEAR=2009
DGENRE=Alternative Metal
TTITLE0=War
TTITLE1=I Hate You
TTITLE2=Riptide
TTITLE3=You're Going Down
TTITLE4=Odd One
TTITLE5=So What I Lied
TTITLE6=Survive
TTITLE7=Should've Known Better
TTITLE8=Maybe
TTITLE9=Don't Walk Away
TTITLE10=Master Of The Universe
TTITLE11=In It For Life
TTITLE12=White Balloons
EXTD=
EXTT0=
EXTT1=
EXTT2=
EXTT3=
EXTT4=
EXTT5=
EXTT6=
EXTT7=
EXTT8=
EXTT9=
EXTT10=
EXTT11=
EXTT12=
PLAYORDER=
